<svg xmlns="http://www.w3.org/2000/svg" viewBox="0 0 1200 675" width="1200" height="675"><rect width="1200" height="675" fill="#eef6ff"/><rect x="0" y="0" width="75" height="75" fill="#03386b"/><rect x="75" y="0" width="75" height="75" fill="#0176d3"/><rect x="150" y="0" width="75" height="75" fill="#0176d3"/><rect x="225" y="0" width="75" height="75" fill="#03386b"/><rect x="300" y="0" width="75" height="75" fill="#0176d3"/><rect x="375" y="0" width="75" height="75" fill="#0176d3"/><rect x="450" y="0" width="75" height="75" fill="#03386b"/><rect x="525" y="0" width="75" height="75" fill="#0176d3"/><rect x="600" y="0" width="75" height="75" fill="#0176d3"/><rect x="675" y="0" width="75" height="75" fill="#03386b"/><rect x="750" y="0" width="75" height="75" fill="#0176d3"/><rect x="825" y="0" width="75" height="75" fill="#0176d3"/><rect x="900" y="0" width="75" height="75" fill="#03386b"/><rect x="975" y="0" width="75" height="75" fill="#0176d3"/><rect x="1050" y="0" width="75" height="75" fill="#0176d3"/><rect x="1125" y="0" width="75" height="75" fill="#03386b"/><rect x="0" y="75" width="75" height="75" fill="#0176d3"/><rect x="75" y="75" width="75" height="75" fill="#0176d3"/><rect x="150" y="75" width="75" height="75" fill="#03386b"/><rect x="225" y="75" width="75" height="75" fill="#0176d3"/><rect x="300" y="75" width="75" height="75" fill="#0176d3"/><rect x="375" y="75" width="75" height="75" fill="#03386b"/><rect x="450" y="75" width="75" height="75" fill="#0176d3"/><rect x="525" y="75" width="75" height="75" fill="#0176d3"/><rect x="600" y="75" width="75" height="75" fill="#03386b"/><rect x="675" y="75" width="75" height="75" fill="#0176d3"/><rect x="750" y="75" width="75" height="75" fill="#0176d3"/><rect x="825" y="75" width="75" height="75" fill="#03386b"/><rect x="900" y="75" width="75" height="75" fill="#0176d3"/><rect x="975" y="75" width="75" height="75" fill="#0176d3"/><rect x="1050" y="75" width="75" height="75" fill="#03386b"/><rect x="1125" y="75" width="75" height="75" fill="#0176d3"/><rect x="0" y="150" width="75" height="75" fill="#0176d3"/><rect x="75" y="150" width="75" height="75" fill="#03386b"/><rect x="150" y="150" width="75" height="75" fill="#0176d3"/><rect x="225" y="150" width="75" height="75" fill="#0176d3"/><rect x="300" y="150" width="75" height="75" fill="#03386b"/><rect x="375" y="150" width="75" height="75" fill="#0176d3"/><rect x="450" y="150" width="75" height="75" fill="#0176d3"/><rect x="525" y="150" width="75" height="75" fill="#03386b"/><rect x="600" y="150" width="75" height="75" fill="#0176d3"/><rect x="675" y="150" width="75" height="75" fill="#0176d3"/><rect x="750" y="150" width="75" height="75" fill="#03386b"/><rect x="825" y="150" width="75" height="75" fill="#0176d3"/><rect x="900" y="150" width="75" height="75" fill="#0176d3"/><rect x="975" y="150" width="75" height="75" fill="#03386b"/><rect x="1050" y="150" width="75" height="75" fill="#0176d3"/><rect x="1125" y="150" width="75" height="75" fill="#0176d3"/><rect x="0" y="225" width="75" height="75" fill="#03386b"/><rect x="75" y="225" width="75" height="75" fill="#0176d3"/><rect x="150" y="225" width="75" height="75" fill="#0176d3"/><rect x="225" y="225" width="75" height="75" fill="#03386b"/><rect x="300" y="225" width="75" height="75" fill="#0176d3"/><rect x="375" y="225" width="75" height="75" fill="#0176d3"/><rect x="450" y="225" width="75" height="75" fill="#03386b"/><rect x="525" y="225" width="75" height="75" fill="#0176d3"/><rect x="600" y="225" width="75" height="75" fill="#0176d3"/><rect x="675" y="225" width="75" height="75" fill="#03386b"/><rect x="750" y="225" width="75" height="75" fill="#0176d3"/><rect x="825" y="225" width="75" height="75" fill="#0176d3"/><rect x="900" y="225" width="75" height="75" fill="#03386b"/><rect x="975" y="225" width="75" height="75" fill="#0176d3"/><rect x="1050" y="225" width="75" height="75" fill="#0176d3"/><rect x="1125" y="225" width="75" height="75" fill="#03386b"/><rect x="0" y="300" width="75" height="75" fill="#0176d3"/><rect x="75" y="300" width="75" height="75" fill="#0176d3"/><rect x="150" y="300" width="75" height="75" fill="#03386b"/><rect x="225" y="300" width="75" height="75" fill="#0176d3"/><rect x="300" y="300" width="75" height="75" fill="#0176d3"/><rect x="375" y="300" width="75" height="75" fill="#03386b"/><rect x="450" y="300" width="75" height="75" fill="#0176d3"/><rect x="525" y="300" width="75" height="75" fill="#0176d3"/><rect x="600" y="300" width="75" height="75" fill="#03386b"/><rect x="675" y="300" width="75" height="75" fill="#0176d3"/><rect x="750" y="300" width="75" height="75" fill="#0176d3"/><rect x="825" y="300" width="75" height="75" fill="#03386b"/><rect x="900" y="300" width="75" height="75" fill="#0176d3"/><rect x="975" y="300" width="75" height="75" fill="#0176d3"/><rect x="1050" y="300" width="75" height="75" fill="#03386b"/><rect x="1125" y="300" width="75" height="75" fill="#0176d3"/><rect x="0" y="375" width="75" height="75" fill="#0176d3"/><rect x="75" y="375" width="75" height="75" fill="#03386b"/><rect x="150" y="375" width="75" height="75" fill="#0176d3"/><rect x="225" y="375" width="75" height="75" fill="#0176d3"/><rect x="300" y="375" width="75" height="75" fill="#03386b"/><rect x="375" y="375" width="75" height="75" fill="#0176d3"/><rect x="450" y="375" width="75" height="75" fill="#0176d3"/><rect x="525" y="375" width="75" height="75" fill="#03386b"/><rect x="600" y="375" width="75" height="75" fill="#0176d3"/><rect x="675" y="375" width="75" height="75" fill="#0176d3"/><rect x="750" y="375" width="75" height="75" fill="#03386b"/><rect x="825" y="375" width="75" height="75" fill="#0176d3"/><rect x="900" y="375" width="75" height="75" fill="#0176d3"/><rect x="975" y="375" width="75" height="75" fill="#03386b"/><rect x="1050" y="375" width="75" height="75" fill="#0176d3"/><rect x="1125" y="375" width="75" height="75" fill="#0176d3"/><rect x="0" y="450" width="75" height="75" fill="#03386b"/><rect x="75" y="450" width="75" height="75" fill="#0176d3"/><rect x="150" y="450" width="75" height="75" fill="#0176d3"/><rect x="225" y="450" width="75" height="75" fill="#03386b"/><rect x="300" y="450" width="75" height="75" fill="#0176d3"/><rect x="375" y="450" width="75" height="75" fill="#0176d3"/><rect x="450" y="450" width="75" height="75" fill="#03386b"/><rect x="525" y="450" width="75" height="75" fill="#0176d3"/><rect x="600" y="450" width="75" height="75" fill="#0176d3"/><rect x="675" y="450" width="75" height="75" fill="#03386b"/><rect x="750" y="450" width="75" height="75" fill="#0176d3"/><rect x="825" y="450" width="75" height="75" fill="#0176d3"/><rect x="900" y="450" width="75" height="75" fill="#03386b"/><rect x="975" y="450" width="75" height="75" fill="#0176d3"/><rect x="1050" y="450" width="75" height="75" fill="#0176d3"/><rect x="1125" y="450" width="75" height="75" fill="#03386b"/><rect x="0" y="525" width="75" height="75" fill="#0176d3"/><rect x="75" y="525" width="75" height="75" fill="#0176d3"/><rect x="150" y="525" width="75" height="75" fill="#03386b"/><rect x="225" y="525" width="75" height="75" fill="#0176d3"/><rect x="300" y="525" width="75" height="75" fill="#0176d3"/><rect x="375" y="525" width="75" height="75" fill="#03386b"/><rect x="450" y="525" width="75" height="75" fill="#0176d3"/><rect x="525" y="525" width="75" height="75" fill="#0176d3"/><rect x="600" y="525" width="75" height="75" fill="#03386b"/><rect x="675" y="525" width="75" height="75" fill="#0176d3"/><rect x="750" y="525" width="75" height="75" fill="#0176d3"/><rect x="825" y="525" width="75" height="75" fill="#03386b"/><rect x="900" y="525" width="75" height="75" fill="#0176d3"/><rect x="975" y="525" width="75" height="75" fill="#0176d3"/><rect x="1050" y="525" width="75" height="75" fill="#03386b"/><rect x="1125" y="525" width="75" height="75" fill="#0176d3"/><rect x="0" y="600" width="75" height="75" fill="#0176d3"/><rect x="75" y="600" width="75" height="75" fill="#03386b"/><rect x="150" y="600" width="75" height="75" fill="#0176d3"/><rect x="225" y="600" width="75" height="75" fill="#0176d3"/><rect x="300" y="600" width="75" height="75" fill="#03386b"/><rect x="375" y="600" width="75" height="75" fill="#0176d3"/><rect x="450" y="600" width="75" height="75" fill="#0176d3"/><rect x="525" y="600" width="75" height="75" fill="#03386b"/><rect x="600" y="600" width="75" height="75" fill="#0176d3"/><rect x="675" y="600" width="75" height="75" fill="#0176d3"/><rect x="750" y="600" width="75" height="75" fill="#03386b"/><rect x="825" y="600" width="75" height="75" fill="#0176d3"/><rect x="900" y="600" width="75" height="75" fill="#0176d3"/><rect x="975" y="600" width="75" height="75" fill="#03386b"/><rect x="1050" y="600" width="75" height="75" fill="#0176d3"/><rect x="1125" y="600" width="75" height="75" fill="#0176d3"/><g stroke="#0176d3" stroke-opacity="0.28" stroke-width="1.5"><line x1="75" y1="0" x2="75" y2="675"/><line x1="150" y1="0" x2="150" y2="675"/><line x1="225" y1="0" x2="225" y2="675"/><line x1="300" y1="0" x2="300" y2="675"/><line x1="375" y1="0" x2="375" y2="675"/><line x1="450" y1="0" x2="450" y2="675"/><line x1="525" y1="0" x2="525" y2="675"/><line x1="600" y1="0" x2="600" y2="675"/><line x1="675" y1="0" x2="675" y2="675"/><line x1="750" y1="0" x2="750" y2="675"/><line x1="825" y1="0" x2="825" y2="675"/><line x1="900" y1="0" x2="900" y2="675"/><line x1="975" y1="0" x2="975" y2="675"/><line x1="1050" y1="0" x2="1050" y2="675"/><line x1="1125" y1="0" x2="1125" y2="675"/><line x1="0" y1="75" x2="1200" y2="75"/><line x1="0" y1="150" x2="1200" y2="150"/><line x1="0" y1="225" x2="1200" y2="225"/><line x1="0" y1="300" x2="1200" y2="300"/><line x1="0" y1="375" x2="1200" y2="375"/><line x1="0" y1="450" x2="1200" y2="450"/><line x1="0" y1="525" x2="1200" y2="525"/><line x1="0" y1="600" x2="1200" y2="600"/></g></svg>